<mxfile host="app.diagrams.net" modified="2024-02-25T11:21:12.712Z" agent="Mozilla/5.0 (Windows NT 10.0; Win64; x64) AppleWebKit/537.36 (KHTML, like Gecko) Chrome/121.0.0.0 Safari/537.36" etag="bbsNt7PJaTuaYynlcwUO" version="23.1.6" type="device">
  <diagram name="Page-1" id="RCPhZkCEnvMFQmZfmygf">
    <mxGraphModel dx="1430" dy="781" grid="1" gridSize="10" guides="1" tooltips="1" connect="1" arrows="1" fold="1" page="1" pageScale="1" pageWidth="827" pageHeight="1169" background="#ffffff" math="0" shadow="0">
      <root>
        <mxCell id="0" />
        <mxCell id="1" parent="0" />
        <mxCell id="MQpZrQVpcTxIOg1yM8cY-1" value="" style="whiteSpace=wrap;html=1;" vertex="1" parent="1">
          <mxGeometry x="160" y="400" width="560" height="360" as="geometry" />
        </mxCell>
        <mxCell id="MQpZrQVpcTxIOg1yM8cY-3" value="LabVIEW Application" style="whiteSpace=wrap;html=1;" vertex="1" parent="1">
          <mxGeometry x="160" y="390" width="560" height="40" as="geometry" />
        </mxCell>
        <mxCell id="MQpZrQVpcTxIOg1yM8cY-6" value="&lt;font style=&quot;font-size: 20px;&quot;&gt;Application&lt;br&gt;Logic&lt;/font&gt;" style="whiteSpace=wrap;html=1;aspect=fixed;" vertex="1" parent="1">
          <mxGeometry x="420" y="460" width="270" height="270" as="geometry" />
        </mxCell>
        <mxCell id="MQpZrQVpcTxIOg1yM8cY-8" value="Client Request" style="text;html=1;align=center;verticalAlign=middle;resizable=0;points=[];autosize=1;strokeColor=none;fillColor=none;" vertex="1" parent="1">
          <mxGeometry x="50" y="610" width="100" height="30" as="geometry" />
        </mxCell>
        <mxCell id="MQpZrQVpcTxIOg1yM8cY-10" value="Server Response" style="text;html=1;align=center;verticalAlign=middle;resizable=0;points=[];autosize=1;strokeColor=none;fillColor=none;" vertex="1" parent="1">
          <mxGeometry x="40" y="662" width="120" height="30" as="geometry" />
        </mxCell>
        <mxCell id="MQpZrQVpcTxIOg1yM8cY-14" value="" style="rounded=0;whiteSpace=wrap;html=1;" vertex="1" parent="1">
          <mxGeometry x="190" y="460" width="180" height="270" as="geometry" />
        </mxCell>
        <mxCell id="MQpZrQVpcTxIOg1yM8cY-5" value="UI&amp;nbsp;Test&amp;nbsp;Daemon" style="whiteSpace=wrap;html=1;" vertex="1" parent="1">
          <mxGeometry x="190" y="460" width="180" height="20" as="geometry" />
        </mxCell>
        <mxCell id="MQpZrQVpcTxIOg1yM8cY-16" style="edgeStyle=orthogonalEdgeStyle;rounded=0;orthogonalLoop=1;jettySize=auto;html=1;exitX=0.75;exitY=0;exitDx=0;exitDy=0;entryX=0.75;entryY=1;entryDx=0;entryDy=0;" edge="1" parent="1" source="MQpZrQVpcTxIOg1yM8cY-4" target="MQpZrQVpcTxIOg1yM8cY-15">
          <mxGeometry relative="1" as="geometry" />
        </mxCell>
        <mxCell id="MQpZrQVpcTxIOg1yM8cY-4" value="ZMQ&lt;br&gt;Server&lt;br&gt;(REP)" style="whiteSpace=wrap;html=1;aspect=fixed;fillColor=#f8cecc;strokeColor=#b85450;" vertex="1" parent="1">
          <mxGeometry x="240" y="622" width="80" height="80" as="geometry" />
        </mxCell>
        <mxCell id="MQpZrQVpcTxIOg1yM8cY-7" value="" style="endArrow=classic;html=1;rounded=0;entryX=0;entryY=0.25;entryDx=0;entryDy=0;" edge="1" parent="1" target="MQpZrQVpcTxIOg1yM8cY-4">
          <mxGeometry width="50" height="50" relative="1" as="geometry">
            <mxPoint x="50" y="642" as="sourcePoint" />
            <mxPoint x="170" y="642" as="targetPoint" />
          </mxGeometry>
        </mxCell>
        <mxCell id="MQpZrQVpcTxIOg1yM8cY-9" value="" style="endArrow=classic;html=1;rounded=0;entryX=0;entryY=0.25;entryDx=0;entryDy=0;exitX=0;exitY=0.5;exitDx=0;exitDy=0;" edge="1" parent="1" source="MQpZrQVpcTxIOg1yM8cY-4">
          <mxGeometry width="50" height="50" relative="1" as="geometry">
            <mxPoint x="190" y="661.66" as="sourcePoint" />
            <mxPoint x="50" y="661.66" as="targetPoint" />
          </mxGeometry>
        </mxCell>
        <mxCell id="MQpZrQVpcTxIOg1yM8cY-17" style="edgeStyle=orthogonalEdgeStyle;rounded=0;orthogonalLoop=1;jettySize=auto;html=1;exitX=0.25;exitY=1;exitDx=0;exitDy=0;entryX=0.25;entryY=0;entryDx=0;entryDy=0;" edge="1" parent="1" source="MQpZrQVpcTxIOg1yM8cY-15" target="MQpZrQVpcTxIOg1yM8cY-4">
          <mxGeometry relative="1" as="geometry" />
        </mxCell>
        <mxCell id="MQpZrQVpcTxIOg1yM8cY-15" value="Daemon&lt;br&gt;Logic" style="whiteSpace=wrap;html=1;aspect=fixed;" vertex="1" parent="1">
          <mxGeometry x="240" y="510" width="80" height="80" as="geometry" />
        </mxCell>
        <mxCell id="MQpZrQVpcTxIOg1yM8cY-19" value="" style="endArrow=classic;html=1;rounded=0;" edge="1" parent="1">
          <mxGeometry width="50" height="50" relative="1" as="geometry">
            <mxPoint x="320" y="530" as="sourcePoint" />
            <mxPoint x="420" y="530" as="targetPoint" />
          </mxGeometry>
        </mxCell>
        <mxCell id="MQpZrQVpcTxIOg1yM8cY-20" value="" style="endArrow=classic;html=1;rounded=0;" edge="1" parent="1">
          <mxGeometry width="50" height="50" relative="1" as="geometry">
            <mxPoint x="420" y="559.66" as="sourcePoint" />
            <mxPoint x="320" y="559.66" as="targetPoint" />
          </mxGeometry>
        </mxCell>
      </root>
    </mxGraphModel>
  </diagram>
</mxfile>
